<svg width="40" height="40" viewBox="0 0 40 40" fill="none" xmlns="http://www.w3.org/2000/svg">
<g clip-path="url(#clip0_125_507)">
<mask id="mask0_125_507" style="mask-type:alpha" maskUnits="userSpaceOnUse" x="0" y="0" width="40" height="40">
<rect width="40" height="40" fill="#D9D9D9"/>
</mask>
<g mask="url(#mask0_125_507)">
<path d="M4.91699 33.1668V5.3335H19.417V12.0002H35.0837V33.1668H4.91699ZM6.08366 32.0002H11.5837V26.5002H6.08366V32.0002ZM6.08366 25.3335H11.5837V19.8335H6.08366V25.3335ZM6.08366 18.6668H11.5837V13.1668H6.08366V18.6668ZM6.08366 12.0002H11.5837V6.50016H6.08366V12.0002ZM12.7503 32.0002H18.2503V26.5002H12.7503V32.0002ZM12.7503 25.3335H18.2503V19.8335H12.7503V25.3335ZM12.7503 18.6668H18.2503V13.1668H12.7503V18.6668ZM12.7503 12.0002H18.2503V6.50016H12.7503V12.0002ZM19.417 32.0002H33.917V13.1668H19.417V18.6668H23.5837V19.8335H19.417V25.3335H23.5837V26.5002H19.417V32.0002ZM27.7503 19.8335V18.6668H28.917V19.8335H27.7503ZM27.7503 26.5002V25.3335H28.917V26.5002H27.7503Z" fill="white"/>
</g>
</g>
<defs>
<clipPath id="clip0_125_507">
<rect width="40" height="40" fill="white"/>
</clipPath>
</defs>
</svg>
