<svg width="40" height="40" viewBox="0 0 40 40" fill="none" xmlns="http://www.w3.org/2000/svg">
<g clip-path="url(#clip0_125_521)">
<mask id="mask0_125_521" style="mask-type:alpha" maskUnits="userSpaceOnUse" x="-1" y="0" width="41" height="41">
<rect x="-0.23877" y="0.307129" width="40" height="40" fill="#D9D9D9"/>
</mask>
<g mask="url(#mask0_125_521)">
<path d="M19.7609 20.6408C18.5234 20.6408 17.4641 20.2001 16.583 19.3187C15.7016 18.4376 15.2609 17.3783 15.2609 16.1408V11.9325C15.2609 11.458 15.423 11.0547 15.7472 10.7225C16.071 10.3902 16.4645 10.2241 16.9276 10.2241C17.2331 10.2241 17.504 10.2936 17.7401 10.4325C17.9762 10.5713 18.1776 10.7519 18.3442 10.9741C18.5109 10.7519 18.7123 10.5713 18.9484 10.4325C19.1845 10.2936 19.4553 10.2241 19.7609 10.2241C20.0665 10.2241 20.3373 10.2936 20.5734 10.4325C20.8095 10.5713 21.0109 10.7519 21.1776 10.9741C21.3442 10.7519 21.5456 10.5713 21.7817 10.4325C22.0178 10.2936 22.2817 10.2241 22.5734 10.2241C23.0595 10.2241 23.4623 10.3902 23.7817 10.7225C24.1012 11.0547 24.2609 11.458 24.2609 11.9325V16.1408C24.2609 17.3783 23.8204 18.4376 22.9392 19.3187C22.0579 20.2001 20.9984 20.6408 19.7609 20.6408ZM19.7609 19.4741C20.6776 19.4741 21.4623 19.1477 22.1151 18.495C22.7678 17.8422 23.0942 17.0575 23.0942 16.1408V11.9741H16.4276V16.1408C16.4276 17.0575 16.754 17.8422 17.4067 18.495C18.0595 19.1477 18.8442 19.4741 19.7609 19.4741ZM8.59424 32.3075V30.1408C8.59424 29.5297 8.78174 28.9533 9.15674 28.4116C9.53174 27.87 10.0387 27.4463 10.6776 27.1408C12.2053 26.4186 13.7262 25.8769 15.2401 25.5158C16.754 25.1547 18.2609 24.9741 19.7609 24.9741C21.2609 24.9741 22.7678 25.1547 24.2817 25.5158C25.7956 25.8769 27.3165 26.4186 28.8442 27.1408C29.4831 27.4463 29.9901 27.87 30.3651 28.4116C30.7401 28.9533 30.9276 29.5297 30.9276 30.1408V32.3075H8.59424ZM9.7609 31.1408H29.7609V30.1408C29.7609 29.7519 29.629 29.3838 29.3651 29.0366C29.1012 28.6894 28.7331 28.3908 28.2609 28.1408C26.9276 27.5019 25.543 27.0088 24.1072 26.6616C22.6716 26.3144 21.2228 26.1408 19.7609 26.1408C18.299 26.1408 16.8502 26.3144 15.4147 26.6616C13.9788 27.0088 12.5942 27.5019 11.2609 28.1408C10.7887 28.3908 10.4206 28.6894 10.1567 29.0366C9.89285 29.3838 9.7609 29.7519 9.7609 30.1408V31.1408Z" fill="white"/>
</g>
</g>
<defs>
<clipPath id="clip0_125_521">
<rect width="40" height="40" fill="white"/>
</clipPath>
</defs>
</svg>
