<svg width="125" height="126" viewBox="0 0 125 126" fill="none" xmlns="http://www.w3.org/2000/svg">
<path d="M62.1701 110.747C59.066 110.747 56.4273 109.651 54.2541 107.461C52.0809 105.269 50.9943 102.609 50.9943 99.4799C50.9943 96.3498 52.0809 93.6817 54.2541 91.4756C56.4273 89.2695 59.066 88.1665 62.1701 88.1665C65.2742 88.1665 67.951 89.2617 70.2003 91.4523C72.4497 93.6436 73.5744 96.3039 73.5744 99.4331C73.5744 102.563 72.4497 105.231 70.2003 107.437C67.951 109.643 65.2742 110.747 62.1701 110.747ZM62.2194 107.113C64.339 107.113 66.1558 106.38 67.6698 104.913C69.1838 103.448 69.9408 101.631 69.9408 99.463C69.9408 97.2958 69.1946 95.4769 67.7022 94.0061C66.2099 92.5354 64.3607 91.8 62.1546 91.8C60.0782 91.8 58.3047 92.557 56.834 94.071C55.3632 95.585 54.6279 97.3802 54.6279 99.4565C54.6279 101.533 55.3632 103.328 56.834 104.842C58.3047 106.356 60.0999 107.113 62.2194 107.113ZM31.0252 92.7084C27.9211 92.7084 25.2824 91.6132 23.1092 89.4226C20.936 87.2313 19.8494 84.571 19.8494 81.4418C19.8494 78.3117 20.936 75.6436 23.1092 73.4375C25.2824 71.2314 27.9211 70.1284 31.0252 70.1284C34.1293 70.1284 36.806 71.2236 39.0554 73.4142C41.3048 75.6055 42.4294 78.2658 42.4294 81.395C42.4294 84.5251 41.3048 87.1932 39.0554 89.3993C36.806 91.6054 34.1293 92.7084 31.0252 92.7084ZM93.315 92.7084C90.2109 92.7084 87.5723 91.6132 85.399 89.4226C83.2258 87.2313 82.1392 84.571 82.1392 81.4418C82.1392 78.3117 83.2258 75.6436 85.399 73.4375C87.5723 71.2314 90.2109 70.1284 93.315 70.1284C96.4192 70.1284 99.0959 71.2236 101.345 73.4142C103.595 75.6055 104.719 78.2658 104.719 81.395C104.719 84.5251 103.595 87.1932 101.345 89.3993C99.0959 91.6054 96.4192 92.7084 93.315 92.7084ZM31.0745 89.0749C33.1941 89.0749 35.0109 88.3417 36.5249 86.8753C38.0389 85.4097 38.7959 83.5929 38.7959 81.4249C38.7959 79.2577 38.0497 77.4388 36.5573 75.968C35.065 74.4973 33.2157 73.7619 31.0096 73.7619C28.9333 73.7619 27.1598 74.5189 25.689 76.0329C24.2183 77.5469 23.4829 79.3421 23.4829 81.4184C23.4829 83.4947 24.2183 85.2899 25.689 86.8039C27.1598 88.3179 28.9549 89.0749 31.0745 89.0749ZM93.3644 89.0749C95.4839 89.0749 97.3007 88.3417 98.8147 86.8753C100.329 85.4097 101.086 83.5929 101.086 81.4249C101.086 79.2577 100.34 77.4388 98.8472 75.968C97.3548 74.4973 95.5056 73.7619 93.2995 73.7619C91.2232 73.7619 89.4496 74.5189 87.9789 76.0329C86.5082 77.5469 85.7728 79.3421 85.7728 81.4184C85.7728 83.4947 86.5082 85.2899 87.9789 86.8039C89.4496 88.3179 91.2448 89.0749 93.3644 89.0749ZM31.0252 56.6322C27.9211 56.6322 25.2824 55.537 23.1092 53.3464C20.936 51.1551 19.8494 48.4948 19.8494 45.3656C19.8494 42.2355 20.936 39.5674 23.1092 37.3613C25.2824 35.1552 27.9211 34.0522 31.0252 34.0522C34.1293 34.0522 36.806 35.1474 39.0554 37.338C41.3048 39.5293 42.4294 42.1896 42.4294 45.3188C42.4294 48.4489 41.3048 51.117 39.0554 53.3231C36.806 55.5292 34.1293 56.6322 31.0252 56.6322ZM93.315 56.6322C90.2109 56.6322 87.5723 55.537 85.399 53.3464C83.2258 51.1551 82.1392 48.4948 82.1392 45.3656C82.1392 42.2355 83.2258 39.5674 85.399 37.3613C87.5723 35.1552 90.2109 34.0522 93.315 34.0522C96.4192 34.0522 99.0959 35.1474 101.345 37.338C103.595 39.5293 104.719 42.1896 104.719 45.3188C104.719 48.4489 103.595 51.117 101.345 53.3231C99.0959 55.5292 96.4192 56.6322 93.315 56.6322ZM31.0745 52.9987C33.1941 52.9987 35.0109 52.2655 36.5249 50.799C38.0389 49.3335 38.7959 47.5167 38.7959 45.3487C38.7959 43.1815 38.0497 41.3626 36.5573 39.8918C35.065 38.4211 33.2157 37.6857 31.0096 37.6857C28.9333 37.6857 27.1598 38.4427 25.689 39.9567C24.2183 41.4707 23.4829 43.2659 23.4829 45.3422C23.4829 47.4185 24.2183 49.2137 25.689 50.7277C27.1598 52.2417 28.9549 52.9987 31.0745 52.9987ZM93.3644 52.9987C95.4839 52.9987 97.3007 52.2655 98.8147 50.799C100.329 49.3335 101.086 47.5167 101.086 45.3487C101.086 43.1815 100.34 41.3626 98.8472 39.8918C97.3548 38.4211 95.5056 37.6857 93.2995 37.6857C91.2232 37.6857 89.4496 38.4427 87.9789 39.9567C86.5082 41.4707 85.7728 43.2659 85.7728 45.3422C85.7728 47.4185 86.5082 49.2137 87.9789 50.7277C89.4496 52.2417 91.2448 52.9987 93.3644 52.9987ZM62.1701 38.2048C59.066 38.2048 56.4273 37.1096 54.2541 34.919C52.0809 32.7276 50.9943 30.0673 50.9943 26.9381C50.9943 23.8081 52.0809 21.14 54.2541 18.9339C56.4273 16.7278 59.066 15.6248 62.1701 15.6248C65.2742 15.6248 67.951 16.72 70.2003 18.9105C72.4497 21.1019 73.5744 23.7622 73.5744 26.8914C73.5744 30.0215 72.4497 32.6896 70.2003 34.8957C67.951 37.1018 65.2742 38.2048 62.1701 38.2048ZM62.2194 34.5712C64.339 34.5712 66.1558 33.838 67.6698 32.3716C69.1838 30.9061 69.9408 29.0893 69.9408 26.9213C69.9408 24.7541 69.1946 22.9352 67.7022 21.4644C66.2099 19.9937 64.3607 19.2583 62.1546 19.2583C60.0782 19.2583 58.3047 20.0153 56.834 21.5293C55.3632 23.0433 54.6279 24.8385 54.6279 26.9148C54.6279 28.9911 55.3632 30.7863 56.834 32.3003C58.3047 33.8143 60.0999 34.5712 62.2194 34.5712Z" fill="white"/>
</svg>
