<svg width="25" height="25" viewBox="0 0 25 25" fill="none" xmlns="http://www.w3.org/2000/svg">
<path d="M23.4872 0.771236C26.7076 3.54306 22.0185 8.4592 19.646 10.0655C18.2232 11.0297 16.4972 11.9771 14.8238 11.0028C10.6572 8.57553 15.4502 3.24329 17.8887 1.50838C19.5521 0.324925 21.6628 -0.798124 23.4872 0.771236Z" fill="white"/>
<path d="M10.1687 13.8461C13.6117 16.5866 8.91254 21.5967 6.49083 23.2388C4.94048 24.2902 2.91027 25.3182 1.21898 23.9155C-1.07745 22.0106 0.316295 19.4513 1.76373 17.5419C3.32973 15.477 7.47853 11.7051 10.1676 13.8461H10.1687Z" fill="white"/>
<path d="M21.3637 15.8896C23.3436 17.752 26.432 21.9545 23.121 24.0977C21.3469 25.2453 19.4476 24.1816 17.9308 23.1133C15.7798 21.5988 11.5404 17.1446 13.8827 14.3941C16.121 11.7654 19.4342 14.073 21.3637 15.8896Z" fill="white"/>
<path d="M8.1666 2.68924C10.2181 4.61095 13.2997 8.87272 9.80083 10.9835C8.07711 12.0237 6.22587 10.9544 4.77508 9.94096C2.59722 8.41969 -1.62988 3.97672 0.690045 1.1937C2.88245 -1.43718 6.27732 0.919652 8.1666 2.68924Z" fill="white"/>
</svg>
