<svg width="160" height="30" viewBox="0 0 160 30" fill="none" xmlns="http://www.w3.org/2000/svg">
<path d="M23.4872 5.52417C26.7076 8.29599 22.0185 13.2121 19.646 14.8184C18.2232 15.7826 16.4972 16.73 14.8238 15.7558C10.6572 13.3285 15.4502 7.99622 17.8887 6.26131C19.5521 5.07785 21.6628 3.95481 23.4872 5.52417Z" fill="black"/>
<path d="M10.1687 18.599C13.6117 21.3395 8.91254 26.3496 6.49083 27.9917C4.94048 29.0432 2.91027 30.0711 1.21898 28.6684C-1.07745 26.7635 0.316295 24.2042 1.76373 22.2948C3.32973 20.2299 7.47853 16.4581 10.1676 18.599H10.1687Z" fill="black"/>
<path d="M21.3637 20.6425C23.3436 22.5049 26.432 26.7074 23.121 28.8506C21.3469 29.9983 19.4476 28.9345 17.9308 27.8663C15.7798 26.3517 11.5404 21.8976 13.8827 19.147C16.121 16.5183 19.4342 18.826 21.3637 20.6425Z" fill="black"/>
<path d="M8.16684 7.44217C10.2183 9.36388 13.3 13.6256 9.80108 15.7364C8.07736 16.7767 6.22611 15.7073 4.77532 14.6939C2.59746 13.1726 -1.62963 8.72965 0.69029 5.94663C2.8827 3.31575 6.27757 5.67258 8.16684 7.44217Z" fill="black"/>
<path d="M39.3322 29.4187L29.0928 4.74854H34.9474L42.8591 22.9276L50.6801 4.74854H56.5113L46.3837 29.4187H39.3322Z" fill="black"/>
<path d="M67.6378 30.0004C65.5785 30.0004 63.7004 29.4702 62.0069 28.4109C60.3123 27.3516 58.9621 25.9255 57.9543 24.1346C56.9465 22.3438 56.4431 20.3661 56.4431 18.2017C56.4431 16.5753 56.7339 15.0484 57.3167 13.6234C57.8984 12.1983 58.7015 10.9444 59.7239 9.86161C60.7463 8.77994 61.9364 7.93318 63.2955 7.3202C64.6535 6.70834 66.1009 6.40186 67.6389 6.40186C69.385 6.40186 70.9857 6.77098 72.441 7.51036C73.8962 8.24862 75.1311 9.26093 76.1468 10.5439C77.1614 11.8281 77.9007 13.29 78.3638 14.9321C78.8258 16.5742 78.9309 18.2901 78.677 20.082H62.31C62.5192 20.9176 62.8626 21.6682 63.3402 22.3326C63.8179 22.997 64.4219 23.5272 65.1535 23.9221C65.885 24.3181 66.7127 24.5228 67.6389 24.5373C68.5942 24.5518 69.4633 24.3248 70.2474 23.8538C71.0316 23.384 71.6837 22.7453 72.2061 21.94L77.781 23.2386C76.8705 25.2241 75.5115 26.8472 73.7061 28.1089C71.8996 29.3707 69.8772 30.0004 67.6389 30.0004H67.6378ZM62.1311 15.9847H73.1468C72.9824 15.0887 72.6356 14.28 72.1054 13.5551C71.5752 12.8314 70.9219 12.2531 70.1468 11.8202C69.3705 11.3873 68.5349 11.1715 67.6389 11.1715C66.743 11.1715 65.9152 11.384 65.1535 11.8102C64.3917 12.2352 63.7463 12.8102 63.2172 13.5339C62.687 14.2576 62.3257 15.0753 62.1311 15.9858V15.9847Z" fill="black"/>
<path d="M102.808 12.4934H91.1243V29.4196H85.6612V12.4934H80.6724V7.03024H85.6612V0H91.1243V7.03024H102.808V12.4934Z" fill="black"/>
<path d="M111.294 12.4934H105.32V29.4196H99.8569V12.4934H96.5437V7.03024H99.8569V0H105.32V7.03024H111.294V12.4934Z" fill="black"/>
<path d="M124.175 30.0004C122.115 30.0004 120.237 29.4702 118.544 28.4109C116.849 27.3516 115.499 25.9255 114.491 24.1346C113.483 22.3438 112.98 20.3661 112.98 18.2017C112.98 16.5753 113.271 15.0484 113.854 13.6234C114.435 12.1983 115.238 10.9444 116.261 9.86161C117.283 8.77994 118.473 7.93318 119.832 7.3202C121.19 6.70834 122.638 6.40186 124.176 6.40186C125.922 6.40186 127.523 6.77098 128.978 7.51036C130.433 8.24862 131.668 9.26093 132.684 10.5439C133.698 11.8281 134.438 13.29 134.901 14.9321C135.363 16.5742 135.468 18.2901 135.214 20.082H118.847C119.056 20.9176 119.399 21.6682 119.877 22.3326C120.355 22.997 120.959 23.5272 121.69 23.9221C122.422 24.3181 123.25 24.5228 124.176 24.5373C125.131 24.5518 126 24.3248 126.784 23.8538C127.568 23.384 128.221 22.7453 128.743 21.94L134.318 23.2386C133.407 25.2241 132.048 26.8472 130.243 28.1089C128.436 29.3707 126.414 30.0004 124.176 30.0004H124.175ZM118.667 15.9847H129.683C129.518 15.0887 129.171 14.28 128.641 13.5551C128.111 12.8314 127.458 12.2531 126.683 11.8202C125.906 11.3873 125.071 11.1715 124.175 11.1715C123.279 11.1715 122.451 11.384 121.689 11.8102C120.927 12.2352 120.282 12.8102 119.753 13.5339C119.223 14.2576 118.861 15.0753 118.667 15.9858V15.9847Z" fill="black"/>
<path d="M159.635 29.4196H153.345L148.239 20.6209L145.105 24.3603V29.4207H139.642V0H145.105V15.8737L152.516 7.03024H159.658L151.979 16.188L159.635 29.4196Z" fill="black"/>
</svg>
