<svg width="40" height="40" viewBox="0 0 40 40" fill="none" xmlns="http://www.w3.org/2000/svg">
<mask id="mask0_124_421" style="mask-type:alpha" maskUnits="userSpaceOnUse" x="5" y="5" width="30" height="30">
<rect x="5" y="5" width="30" height="30" fill="#D9D9D9"/>
</mask>
<g mask="url(#mask0_124_421)">
<path d="M12.5 28.75C12.1562 28.75 11.862 28.6276 11.6172 28.3828C11.3724 28.138 11.25 27.8438 11.25 27.5C11.25 27.1562 11.3724 26.862 11.6172 26.6172C11.862 26.3724 12.1562 26.25 12.5 26.25C12.8438 26.25 13.138 26.3724 13.3828 26.6172C13.6276 26.862 13.75 27.1562 13.75 27.5C13.75 27.8438 13.6276 28.138 13.3828 28.3828C13.138 28.6276 12.8438 28.75 12.5 28.75ZM20 28.75C19.6562 28.75 19.362 28.6276 19.1172 28.3828C18.8724 28.138 18.75 27.8438 18.75 27.5C18.75 27.1562 18.8724 26.862 19.1172 26.6172C19.362 26.3724 19.6562 26.25 20 26.25C20.3438 26.25 20.638 26.3724 20.8828 26.6172C21.1276 26.862 21.25 27.1562 21.25 27.5C21.25 27.8438 21.1276 28.138 20.8828 28.3828C20.638 28.6276 20.3438 28.75 20 28.75ZM27.5 28.75C27.1562 28.75 26.862 28.6276 26.6172 28.3828C26.3724 28.138 26.25 27.8438 26.25 27.5C26.25 27.1562 26.3724 26.862 26.6172 26.6172C26.862 26.3724 27.1562 26.25 27.5 26.25C27.8438 26.25 28.138 26.3724 28.3828 26.6172C28.6276 26.862 28.75 27.1562 28.75 27.5C28.75 27.8438 28.6276 28.138 28.3828 28.3828C28.138 28.6276 27.8438 28.75 27.5 28.75ZM12.5 21.25C12.1562 21.25 11.862 21.1276 11.6172 20.8828C11.3724 20.638 11.25 20.3438 11.25 20C11.25 19.6562 11.3724 19.362 11.6172 19.1172C11.862 18.8724 12.1562 18.75 12.5 18.75C12.8438 18.75 13.138 18.8724 13.3828 19.1172C13.6276 19.362 13.75 19.6562 13.75 20C13.75 20.3438 13.6276 20.638 13.3828 20.8828C13.138 21.1276 12.8438 21.25 12.5 21.25ZM20 21.25C19.6562 21.25 19.362 21.1276 19.1172 20.8828C18.8724 20.638 18.75 20.3438 18.75 20C18.75 19.6562 18.8724 19.362 19.1172 19.1172C19.362 18.8724 19.6562 18.75 20 18.75C20.3438 18.75 20.638 18.8724 20.8828 19.1172C21.1276 19.362 21.25 19.6562 21.25 20C21.25 20.3438 21.1276 20.638 20.8828 20.8828C20.638 21.1276 20.3438 21.25 20 21.25ZM27.5 21.25C27.1562 21.25 26.862 21.1276 26.6172 20.8828C26.3724 20.638 26.25 20.3438 26.25 20C26.25 19.6562 26.3724 19.362 26.6172 19.1172C26.862 18.8724 27.1562 18.75 27.5 18.75C27.8438 18.75 28.138 18.8724 28.3828 19.1172C28.6276 19.362 28.75 19.6562 28.75 20C28.75 20.3438 28.6276 20.638 28.3828 20.8828C28.138 21.1276 27.8438 21.25 27.5 21.25ZM12.5 13.75C12.1562 13.75 11.862 13.6276 11.6172 13.3828C11.3724 13.138 11.25 12.8438 11.25 12.5C11.25 12.1562 11.3724 11.862 11.6172 11.6172C11.862 11.3724 12.1562 11.25 12.5 11.25C12.8438 11.25 13.138 11.3724 13.3828 11.6172C13.6276 11.862 13.75 12.1562 13.75 12.5C13.75 12.8438 13.6276 13.138 13.3828 13.3828C13.138 13.6276 12.8438 13.75 12.5 13.75ZM20 13.75C19.6562 13.75 19.362 13.6276 19.1172 13.3828C18.8724 13.138 18.75 12.8438 18.75 12.5C18.75 12.1562 18.8724 11.862 19.1172 11.6172C19.362 11.3724 19.6562 11.25 20 11.25C20.3438 11.25 20.638 11.3724 20.8828 11.6172C21.1276 11.862 21.25 12.1562 21.25 12.5C21.25 12.8438 21.1276 13.138 20.8828 13.3828C20.638 13.6276 20.3438 13.75 20 13.75ZM27.5 13.75C27.1562 13.75 26.862 13.6276 26.6172 13.3828C26.3724 13.138 26.25 12.8438 26.25 12.5C26.25 12.1562 26.3724 11.862 26.6172 11.6172C26.862 11.3724 27.1562 11.25 27.5 11.25C27.8438 11.25 28.138 11.3724 28.3828 11.6172C28.6276 11.862 28.75 12.1562 28.75 12.5C28.75 12.8438 28.6276 13.138 28.3828 13.3828C28.138 13.6276 27.8438 13.75 27.5 13.75Z" fill="black"/>
</g>
</svg>
