<svg width="125" height="126" viewBox="0 0 125 126" fill="none" xmlns="http://www.w3.org/2000/svg">
<path d="M62.2854 113.604C59.0844 113.604 56.3808 112.479 54.1747 110.23C51.9686 107.98 50.8656 105.255 50.8656 102.054C50.8656 100.756 51.0602 99.5452 51.4496 98.4205C51.8389 97.2958 52.3796 96.2576 53.0717 95.306L30.2321 72.5962C29.2804 73.2883 28.2206 73.829 27.0527 74.2183C25.8848 74.6076 24.6952 74.8023 23.484 74.8023C20.283 74.8023 17.5795 73.6776 15.3734 71.4282C13.1673 69.1789 12.0642 66.4537 12.0642 63.2527C12.0642 60.0517 13.1673 57.3265 15.3734 55.0771C17.5795 52.8278 20.283 51.7031 23.484 51.7031C26.4255 51.7031 28.956 52.6548 31.0756 54.5581C33.1952 56.4614 34.4712 58.7972 34.9038 61.5657H50.9954C51.4279 59.0568 52.5093 56.9372 54.2396 55.2069C55.9699 53.4766 58.0895 52.3952 60.5984 51.9626V35.8711C57.8299 35.4385 55.5157 34.1408 53.6557 31.978C51.7956 29.8151 50.8656 27.3062 50.8656 24.4513C50.8656 21.2503 51.9903 18.5467 54.2396 16.3406C56.489 14.1345 59.2142 13.0315 62.4152 13.0315C65.6162 13.0315 68.3414 14.1345 70.5907 16.3406C72.8401 18.5467 73.9647 21.2503 73.9647 24.4513C73.9647 25.6625 73.7701 26.8521 73.3808 28.02C72.9915 29.1879 72.4507 30.2477 71.7586 31.1994L94.4685 53.9092C95.4201 53.2171 96.4799 52.6764 97.6479 52.2871C98.8158 51.8978 100.005 51.7031 101.217 51.7031C104.418 51.7031 107.121 52.8278 109.327 55.0771C111.533 57.3265 112.636 60.0517 112.636 63.2527C112.636 66.4537 111.533 69.1789 109.327 71.4282C107.121 73.6776 104.418 74.8023 101.217 74.8023C98.3616 74.8023 95.8527 73.8722 93.6899 72.0122C91.527 70.1521 90.2293 67.8379 89.7967 65.0695H73.835C73.4024 67.5784 72.2994 69.6979 70.5258 71.4282C68.7523 73.1585 66.6111 74.2399 64.1022 74.6725V90.764C66.8706 91.1966 69.2065 92.4727 71.1098 94.5923C73.0131 96.7118 73.9647 99.1991 73.9647 102.054C73.9647 105.255 72.8184 107.98 70.5258 110.23C68.2332 112.479 65.4864 113.604 62.2854 113.604ZM60.5984 90.764V74.6725C59.3872 74.4995 58.2409 74.1318 57.1595 73.5694C56.078 73.0071 55.1048 72.2934 54.2396 71.4282C53.3745 70.5631 52.6607 69.5898 52.0984 68.5084C51.5361 67.427 51.1684 66.2807 50.9954 65.0695H34.9038C34.8173 65.502 34.7092 65.9346 34.5794 66.3672C34.4496 66.7997 34.2982 67.2323 34.1252 67.6649C33.9522 68.0974 33.7575 68.5084 33.5412 68.8977C33.3249 69.287 33.087 69.6547 32.8275 70.0007C33.3466 70.5198 34.7308 71.8824 36.9801 74.0885C39.2295 76.2946 41.6519 78.6954 44.2473 81.2908L51.5144 88.5579L55.6671 92.7106C56.0132 92.451 56.3808 92.2131 56.7701 91.9968C57.1595 91.7806 57.5704 91.5859 58.003 91.4129C58.4355 91.2399 58.8681 91.1101 59.3007 91.0236L60.5984 90.764ZM73.835 61.4359H89.7967C89.8833 61.0033 89.9914 60.5708 90.1212 60.1382C90.2509 59.7056 90.4023 59.273 90.5754 58.8405C90.7484 58.4079 90.943 57.997 91.1593 57.6077C91.3756 57.2183 91.6135 56.8507 91.8731 56.5046C91.354 55.9855 89.9914 54.6013 87.7853 52.352C85.5792 50.1026 83.1784 47.6802 80.583 45.0848C77.9876 42.4894 75.5652 40.0886 73.3159 37.8825C71.0665 35.6764 69.6823 34.3139 69.1632 33.7948C68.8172 34.0543 68.4495 34.2922 68.0602 34.5085C67.6709 34.7248 67.2599 34.9195 66.8274 35.0925C66.3948 35.2655 65.9622 35.4169 65.5297 35.5467C65.0971 35.6764 64.6645 35.7846 64.232 35.8711V51.9626C65.4431 52.1357 66.5894 52.5034 67.6709 53.0657C68.7523 53.628 69.7039 54.3418 70.5258 55.2069C71.3477 56.072 72.0614 57.0237 72.667 58.0619C73.2726 59.1 73.6619 60.2247 73.835 61.4359ZM101.217 71.1687C103.379 71.1687 105.218 70.4117 106.732 68.8977C108.246 67.3837 109.003 65.502 109.003 63.2527C109.003 61.0898 108.246 59.2298 106.732 57.6725C105.218 56.1153 103.379 55.3367 101.217 55.3367C98.9672 55.3367 97.0855 56.1153 95.5715 57.6725C94.0575 59.2298 93.3005 61.0898 93.3005 63.2527C93.3005 65.502 94.0575 67.3837 95.5715 68.8977C97.0855 70.4117 98.9672 71.1687 101.217 71.1687ZM62.4152 71.1687C64.578 71.1687 66.438 70.4117 67.9953 68.8977C69.5525 67.3837 70.3312 65.502 70.3312 63.2527C70.3312 61.0898 69.5525 59.2298 67.9953 57.6725C66.438 56.1153 64.578 55.3367 62.4152 55.3367C60.1658 55.3367 58.2841 56.1153 56.7701 57.6725C55.2562 59.2298 54.4992 61.0898 54.4992 63.2527C54.4992 65.502 55.2562 67.3837 56.7701 68.8977C58.2841 70.4117 60.1658 71.1687 62.4152 71.1687ZM62.4152 109.97C64.578 109.97 66.438 109.191 67.9953 107.634C69.5525 106.077 70.3312 104.217 70.3312 102.054C70.3312 99.8912 69.5525 98.0312 67.9953 96.4739C66.438 94.9167 64.578 94.1381 62.4152 94.1381C60.1658 94.1381 58.2841 94.9167 56.7701 96.4739C55.2562 98.0312 54.4992 99.8912 54.4992 102.054C54.4992 104.217 55.2562 106.077 56.7701 107.634C58.2841 109.191 60.1658 109.97 62.4152 109.97ZM23.6138 71.1687C25.7766 71.1687 27.6367 70.4117 29.1939 68.8977C30.7512 67.3837 31.5298 65.502 31.5298 63.2527C31.5298 61.0898 30.7512 59.2298 29.1939 57.6725C27.6367 56.1153 25.7766 55.3367 23.6138 55.3367C21.4509 55.3367 19.5909 56.1153 18.0337 57.6725C16.4764 59.2298 15.6978 61.0898 15.6978 63.2527C15.6978 65.502 16.4764 67.3837 18.0337 68.8977C19.5909 70.4117 21.4509 71.1687 23.6138 71.1687ZM62.4152 32.3673C64.578 32.3673 66.438 31.6103 67.9953 30.0963C69.5525 28.5823 70.3312 26.7007 70.3312 24.4513C70.3312 22.2885 69.5525 20.4284 67.9953 18.8712C66.438 17.3139 64.578 16.5353 62.4152 16.5353C60.1658 16.5353 58.2841 17.3139 56.7701 18.8712C55.2562 20.4284 54.4992 22.2885 54.4992 24.4513C54.4992 26.7007 55.2562 28.5823 56.7701 30.0963C58.2841 31.6103 60.1658 32.3673 62.4152 32.3673Z" fill="white"/>
</svg>
