<svg width="125" height="126" viewBox="0 0 125 126" fill="none" xmlns="http://www.w3.org/2000/svg">
<path d="M31.1869 51.3222C25.8836 51.3222 21.3503 49.4509 17.5869 45.7084C13.8236 41.9666 11.9419 37.4407 11.9419 32.1305C11.9419 26.7571 13.8132 22.2104 17.5558 18.4903C21.2975 14.7702 25.8234 12.9102 31.1337 12.9102C36.507 12.9102 41.0537 14.7628 44.7738 18.4682C48.4939 22.1745 50.354 26.7108 50.354 32.0773C50.354 37.3805 48.5013 41.9139 44.7959 45.6772C41.0896 49.4406 36.5533 51.3222 31.1869 51.3222ZM31.1479 47.6887C35.5601 47.6887 39.2586 46.1747 42.2433 43.1467C45.228 40.1187 46.7204 36.4419 46.7204 32.1162C46.7204 27.704 45.228 24.0055 42.2433 21.0208C39.2586 18.0361 35.5601 16.5437 31.1479 16.5437C26.8222 16.5437 23.1454 18.0361 20.1174 21.0208C17.0895 24.0055 15.5755 27.704 15.5755 32.1162C15.5755 36.4419 17.0895 40.1187 20.1174 43.1467C23.1454 46.1747 26.8222 47.6887 31.1479 47.6887ZM87.2088 113.612C85.0676 113.612 83.2348 112.849 81.7104 111.324C80.1852 109.8 79.4226 107.967 79.4226 105.826V88.177C79.4226 86.0358 80.1852 84.2026 81.7104 82.6774C83.2348 81.153 85.0676 80.3908 87.2088 80.3908H104.858C106.999 80.3908 108.832 81.153 110.357 82.6774C111.882 84.2026 112.644 86.0358 112.644 88.177V105.826C112.644 107.967 111.882 109.8 110.357 111.324C108.832 112.849 106.999 113.612 104.858 113.612H87.2088ZM87.2088 109.978H104.858C106.069 109.978 107.064 109.589 107.842 108.811C108.621 108.032 109.01 107.037 109.01 105.826V88.177C109.01 86.9659 108.621 85.9709 107.842 85.1923C107.064 84.4137 106.069 84.0244 104.858 84.0244H87.2088C85.9976 84.0244 85.0027 84.4137 84.2241 85.1923C83.4454 85.9709 83.0561 86.9659 83.0561 88.177V105.826C83.0561 107.037 83.4454 108.032 84.2241 108.811C85.0027 109.589 85.9976 109.978 87.2088 109.978ZM88.6363 39.5131L38.5448 89.4748C38.9774 90.1669 39.3235 90.9347 39.583 91.7782C39.8426 92.6217 39.9723 93.4976 39.9723 94.406C39.9723 96.857 39.1297 98.9406 37.4444 100.657C35.7591 102.373 33.6707 103.23 31.1791 103.23C28.7359 103.23 26.6492 102.372 24.9189 100.654C23.1887 98.9363 22.3235 96.8505 22.3235 94.3969C22.3235 91.8941 23.1813 89.7992 24.8969 88.1122C26.6133 86.4251 28.697 85.5816 31.1479 85.5816C32.0563 85.5816 32.9323 85.7114 33.7758 85.9709C34.6193 86.2305 35.3871 86.5765 36.0792 87.0091L86.0408 36.9177C85.6083 36.2256 85.2622 35.4777 85.0027 34.674C84.7431 33.8694 84.6134 33.0168 84.6134 32.1162C84.6134 29.6159 85.472 27.5202 87.1893 25.8288C88.9075 24.1375 90.9933 23.2918 93.4469 23.2918C95.9497 23.2918 98.0446 24.1344 99.7316 25.8197C101.419 27.505 102.262 29.5935 102.262 32.085C102.262 34.5282 101.416 36.6149 99.7252 38.3452C98.0338 40.0754 95.938 40.9406 93.4378 40.9406C92.5372 40.9406 91.6846 40.8108 90.88 40.5513C90.0763 40.2917 89.3284 39.9457 88.6363 39.5131Z" fill="white"/>
</svg>
